<?xml version="1.0"?>
<svg width="106.00782394174519" height="104.68749999999999" xmlns="http://www.w3.org/2000/svg" xmlns:svg="http://www.w3.org/2000/svg" class="css-1j8o68f" version="1.1">
 <g class="layer">
  <title>Layer 1</title>
  <polyline fill="none" id="svg_5" opacity="0.5" points="30.003884297609375,61.143748846650226 " stroke-linecap="round"/>
  <ellipse cx="53.4" cy="53.74" fill="#bfbfbf" id="svg_17" rx="52" ry="52" transform="matrix(1 0 0 1 0 0)"/>
  <text fill="#3f007f" font-family="Times" font-size="55" id="svg_18" stroke-width="0" text-anchor="middle" transform="matrix(1.68456 0 0 1.34738 197.411 88.7312)" x="-84.6" xml:space="preserve" y="-2.26">T</text>
  <path d="m86.8,86.31c0,1.18 -0.91,2.13 -2.03,2.13l-13.02,0c-1.12,0 -2.03,-0.96 -2.03,-2.13l0,-29.04c0,-1.18 0.91,-2.13 2.03,-2.13l13.02,0c1.12,0 2.03,0.96 2.03,2.13l0,29.04zm-48.19,0c0,1.18 -0.91,2.13 -2.03,2.13l-13.02,0c-1.12,0 -2.03,-0.96 -2.03,-2.13l0,-29.04c0,-1.18 0.91,-2.13 2.03,-2.13l13.02,0c1.12,0 2.03,0.96 2.03,2.13l0,29.04zm15.72,-78.76c-23.55,0 -42.67,19.9 -42.96,44.56l7.46,0c0.24,-20.38 16.04,-36.83 35.51,-36.83c19.46,0 35.27,16.45 35.5,36.83l7.46,0c-0.29,-24.66 -19.41,-44.56 -42.96,-44.56zm-42.9,67.16l7.32,0l0,-22.64l-7.32,0l0,22.64zm78.35,-22.64l0,22.64l7.59,0l0,-22.64l-7.59,0z" fill="#7f0000" id="svg_31"/>
 </g>

</svg>